<?xml version="1.0" encoding="UTF-8"?>
<!-- Generator: Adobe Illustrator 23.1.0, SVG Export Plug-In . SVG Version: 6.00 Build 0)  -->
<svg version="1.1" id="Capa_1" xmlns="http://www.w3.org/2000/svg" xmlns:xlink="http://www.w3.org/1999/xlink" x="0px" y="0px" viewBox="0 0 56.7 56.7" style="enable-background:new 0 0 56.7 56.7;" xml:space="preserve">
<style type="text/css">
	.st0{fill:#2A93FF;stroke:#FFFFFF;stroke-miterlimit:10;}
</style>
<g>
	<path class="st0" d="M44.6,42c-0.8,0-1.5,0.7-1.5,1.5v3.8H15.7V22.1h10.4c0.8,0,1.5-0.7,1.5-1.5V9.3h15.5v8.1   c0,0.8,0.7,1.5,1.5,1.5s1.5-0.7,1.5-1.5V7.8c0-0.8-0.7-1.5-1.5-1.5H26.1c-0.4,0-0.8,0.2-1.1,0.5L13.1,19.6c-0.3,0.3-0.4,0.6-0.4,1   v28.2c0,0.8,0.7,1.5,1.5,1.5h30.4c0.8,0,1.5-0.7,1.5-1.5v-5.3C46.1,42.7,45.5,42,44.6,42z M17.7,19.1l6.9-7.5v7.5H17.7z"/>
	<path class="st0" d="M55.4,17.8c-0.1-0.1-0.2-0.2-0.3-0.3c-0.9-0.8-2-1.2-3.2-1.1s-2.3,0.6-3.1,1.5L34.3,33.3   C34,33.5,34,33.7,33.9,34l-1.3,6.4c-0.1,0.5,0.1,1,0.4,1.4c0.3,0.3,0.7,0.4,1,0.4c0.1,0,0.3,0,0.4-0.1l5.8-1.6   c0.3-0.1,0.5-0.2,0.7-0.4l13.8-14.9l0,0l0,0l0.7-0.7C57.2,22.6,57.2,19.7,55.4,17.8z M52,19.3c0.4,0,0.8,0.1,1.1,0.4l0.1,0.1   c0.5,0.6,0.7,1.4,0.4,2.1l-2.2-2.4C51.6,19.4,51.8,19.3,52,19.3z M36.1,38.7l0.8-3.6l12.5-13.5l2.4,2.6l-10.2,11l-1.2-1.3   c-0.6-0.6-1.5-0.6-2.1-0.1c-0.6,0.6-0.6,1.5-0.1,2.1l1.4,1.5l-0.4,0.4L36.1,38.7z"/>
	<path class="st0" d="M20,39.9c-0.8,0-1.5,0.7-1.5,1.5s0.7,1.5,1.5,1.5h8.1c0.8,0,1.5-0.7,1.5-1.5s-0.7-1.5-1.5-1.5H20z"/>
</g>
</svg>