<?xml version="1.0" encoding="UTF-8"?>
<!-- Generator: Adobe Illustrator 23.1.0, SVG Export Plug-In . SVG Version: 6.00 Build 0)  -->
<svg version="1.1" id="Capa_1" xmlns="http://www.w3.org/2000/svg" xmlns:xlink="http://www.w3.org/1999/xlink" x="0px" y="0px" viewBox="0 0 56.7 56.7" style="enable-background:new 0 0 56.7 56.7;" xml:space="preserve">
<style type="text/css">
	.st0{fill:#2A93FF;stroke:#FFFFFF;stroke-width:1.5;stroke-miterlimit:10;}
</style>
<g>
	<path class="st0" d="M42.2,26.7H19.6V18c0-4.6,3.9-8.4,8.7-8.4S37,13.4,37,18v2.5c0,1,0.8,1.8,1.8,1.8s1.8-0.8,1.8-1.8V18   c0-6.6-5.5-11.9-12.2-11.9S16.1,11.4,16.1,18v8.7h-1.6c-2.2,0-4,1.9-4,4.2v15.5c0,2.3,1.8,4.2,4,4.2h27.8c2.2,0,4-1.9,4-4.2V30.9   C46.2,28.6,44.4,26.7,42.2,26.7z M42.7,46.4c0,0.4-0.2,0.7-0.5,0.7H14.5c-0.3,0-0.5-0.3-0.5-0.7v-2.1h8.8c1,0,1.8-0.8,1.8-1.8   s-0.8-1.8-1.8-1.8H14v-10c0-0.4,0.2-0.7,0.5-0.7h27.8c0.3,0,0.5,0.3,0.5,0.7L42.7,46.4L42.7,46.4z"/>
	<path class="st0" d="M27.5,40.9h-0.3c-1,0-1.8,0.8-1.8,1.8s0.8,1.8,1.8,1.8h0.3c1,0,1.8-0.8,1.8-1.8S28.4,40.9,27.5,40.9z"/>
</g>
</svg>